<svg width="480.00000000000006" height="480.00000000000006" xmlns="http://www.w3.org/2000/svg" version="1.1">
 <g>
  <title>Layer 1</title>
  <path id="svg_2" fill="#005fbf" d="m151.07813,97.99219c5.56514,0.84083 9.87064,3.31395 14.67188,6.13281c1.93695,1.09702 3.87586,2.1906 5.8164,3.28125c1.0327,0.58266 2.0654,1.16532 3.1294,1.76563c5.92962,3.2807 11.96336,6.3588 17.9917,9.45312c1.24337,0.64029 2.48662,1.28083 3.72973,1.92163c1.81909,0.93769 3.63822,1.87529 5.45769,2.81224c5.36203,2.76129 10.71773,5.53422 16.06258,8.32863c1.11604,0.57839 1.11604,0.57839 2.25463,1.16846c11.16191,5.85212 11.16191,5.85212 12.80787,9.14404c0.08452,1.96108 0.10264,3.92513 0.09092,5.88799c-0.00699,1.88213 -0.00699,1.88213 -0.01413,3.80229c-0.01004,1.39841 -0.0201,2.79681 -0.03016,4.19522c-0.00679,1.46675 -0.013,2.9335 -0.01868,4.40025c-0.00925,2.34636 -0.019,4.69271 -0.03058,7.03905c-0.02874,5.82241 -0.04035,11.64467 -0.04143,17.46715c-0.00018,0.84438 -0.00036,1.68875 -0.00055,2.55872c-0.00045,3.48462 -0.00037,6.96925 -0.00016,10.45388c-0.00027,9.89705 -0.01698,19.79347 -0.08194,29.69033c-0.05146,7.85786 -0.06764,15.7149 -0.04254,23.5729c0.01194,4.15861 0.00603,8.31547 -0.04269,12.47385c-0.04548,3.91524 -0.04409,7.82769 -0.00725,11.74299c0.00526,1.43389 -0.00648,2.86797 -0.03679,4.30155c-0.30374,8.03665 -0.30374,8.03665 3.41815,14.77784c2.54291,1.81133 5.04208,3.2547 7.83783,4.63599c1.37911,0.80681 2.75502,1.61917 4.125,2.44141c1.28851,0.71275 2.58019,1.41982 3.875,2.12109c5.40356,2.95479 10.62402,6.02444 15.6914,9.53907c3.37378,1.31297 5.95487,0.98902 9.3086,-0.10157c3.66875,-1.75078 7.13795,-3.78961 10.625,-5.875c0.92812,-0.54269 1.85624,-1.08539 2.8125,-1.64453c3.4243,-2.0065 6.83805,-4.01496 10.17724,-6.16064c2.38526,-1.31983 2.38526,-1.31983 5.38526,-1.31983c3.33252,6.66505 0.11449,15.90176 -1.5625,22.6875c-0.551,2.30203 -1.10177,4.60412 -1.65235,6.90625c-0.29117,1.2027 -0.58233,2.40539 -0.88232,3.64453c-0.92733,3.86379 -1.8285,7.73314 -2.71924,11.60547c-8.36546,36.33812 -8.36546,36.33812 -11.18359,39.15625c-5.29549,0.49729 -8.59869,-0.3842 -13.25391,-2.85937c-0.57408,-0.30036 -1.14816,-0.60072 -1.73964,-0.91017c-1.86395,-0.97978 -3.71623,-1.97964 -5.56895,-2.98046c-1.30002,-0.68887 -2.60065,-1.37661 -3.90186,-2.06323c-3.85651,-2.04151 -7.69801,-4.11005 -11.53564,-6.18677c-1.05462,-0.56992 -2.10923,-1.13985 -3.19581,-1.72705c-4.58357,-2.48369 -9.15752,-4.98441 -13.72607,-7.4956c-10.59824,-5.81527 -21.29975,-11.42838 -32.14062,-16.77735c-6.00835,-2.9759 -11.93094,-6.09319 -17.8125,-9.3125c-0.77997,-0.42088 -1.55993,-0.84176 -2.36353,-1.27539c-0.72308,-0.40025 -1.44617,-0.80051 -2.19116,-1.21289c-0.64179,-0.35232 -1.28359,-0.70463 -1.94483,-1.06763c-1.62548,-1.13159 -1.62548,-1.13159 -3.62548,-4.13159c-0.26172,-2.83669 -0.26172,-2.83669 -0.27848,-6.35905c-0.00579,-0.64777 -0.01158,-1.29553 -0.01755,-1.96292c-0.01703,-2.17422 -0.01988,-4.34823 -0.02282,-6.52251c-0.0093,-1.55708 -0.01947,-3.11415 -0.03044,-4.67122c-0.02735,-4.23108 -0.04247,-8.46213 -0.05543,-12.69328c-0.01561,-4.42031 -0.04241,-8.84056 -0.06803,-13.26082c-0.04683,-8.37221 -0.08355,-16.74443 -0.11668,-25.1167c-0.03819,-9.53077 -0.08761,-19.06147 -0.13798,-28.59217c-0.10338,-19.60706 -0.19262,-39.21416 -0.27259,-58.82133c-0.61797,-0.20464 -1.23594,-0.40928 -1.87263,-0.62013c-0.81064,-0.26917 -1.62129,-0.53833 -2.45649,-0.81566c-0.80359,-0.26652 -1.60719,-0.53304 -2.43513,-0.80763c-4.13529,-1.39938 -8.1461,-3.07623 -12.17325,-4.75658c-0.84885,-0.34289 -1.6977,-0.68578 -2.57227,-1.03906c-0.81018,-0.33773 -1.62035,-0.67547 -2.45508,-1.02344c-0.72824,-0.30035 -1.45648,-0.6007 -2.20679,-0.91015c-1.82837,-1.02735 -1.82837,-1.02735 -3.82837,-4.02735c-0.26069,-2.27673 -0.26069,-2.27673 -0.27465,-4.97461c-0.00954,-1.01115 -0.01907,-2.02229 -0.02889,-3.06408c0.00091,-1.09067 0.00182,-2.18134 0.00276,-3.30506c-0.00428,-1.12064 -0.00857,-2.24127 -0.01298,-3.39587c-0.00575,-2.37048 -0.00624,-4.74097 -0.00191,-7.11145c0.00316,-3.63458 -0.0203,-7.26835 -0.04565,-10.90283c-0.00228,-2.30078 -0.00298,-4.60157 -0.00196,-6.90235c-0.00921,-1.09067 -0.01842,-2.18133 -0.0279,-3.30505c0.00622,-1.01115 0.01245,-2.0223 0.01887,-3.06409c-0.00063,-0.8903 -0.00126,-1.7806 -0.00191,-2.69787c0.72828,-4.43078 3.2025,-5.76989 7.45235,-5.28455z"/>
  <path id="svg_3" fill="#005fbf" d="m256.88235,144c2.88995,1.07843 5.50772,2.54348 8.1875,4.0625c1.66389,0.91047 3.32797,1.8206 4.99219,2.73047c0.91362,0.50579 1.82724,1.01159 2.76855,1.53271c3.42044,1.87659 6.86238,3.71086 10.30957,5.5376c1.8924,1.00469 3.78466,2.00965 5.67691,3.01462c1.24294,0.66 2.48608,1.31961 3.72943,1.97882c1.76601,0.93777 3.52948,1.8803 5.29288,2.82297c1.0207,0.54382 2.04139,1.08764 3.09302,1.64795c8.5323,4.83706 8.5323,4.83706 9.94995,7.67236c0.09609,1.43537 0.13066,2.87511 0.13371,4.31369c0.0064,1.35855 0.0064,1.35855 0.01293,2.74454c-0.00068,1.49461 -0.00068,1.49461 -0.00138,3.01941c0.00336,1.04725 0.00672,2.0945 0.01018,3.17349c0.00953,3.4762 0.01146,6.95235 0.01253,10.42856c0.00321,2.40894 0.00657,4.81789 0.01008,7.22683c0.006,5.05574 0.00784,10.11147 0.00725,15.16721c-0.0001,6.48572 0.01355,12.97132 0.03077,19.45701c0.01111,4.97733 0.01315,9.95463 0.01262,14.93197c0.00119,2.39145 0.00562,4.7829 0.01334,7.17434c0.00977,3.34225 0.00693,6.68427 0.00089,10.02652c0.00562,0.99236 0.01124,1.98472 0.01703,3.00715c-0.0042,0.91133 -0.00839,1.82267 -0.01271,2.76162c0.00054,0.79015 0.00109,1.58029 0.00165,2.39438c-0.28193,2.46174 -0.97132,4.06142 -2.24889,6.17328c-1.56885,1.20093 -1.56885,1.20093 -3.41406,2.18359c-0.67483,0.36811 -1.34965,0.73622 -2.04492,1.11548c-0.71479,0.37568 -1.42957,0.75136 -2.16602,1.13843c-1.46197,0.78715 -2.92292,1.57619 -4.38281,2.36719c-0.69642,0.37608 -1.39283,0.75217 -2.11035,1.13965c-2.77981,1.5594 -5.37437,3.35485 -7.91309,5.27832c-3.33957,1.31859 -6.48645,1.37585 -9.96875,0.77734c-3.04197,-1.32646 -5.70252,-3.06915 -8.4375,-4.9375c-1.07798,-0.70286 -1.07798,-0.70286 -2.17773,-1.41992c-5.06862,-3.32643 -5.06862,-3.32643 -6.38477,-4.64258c-0.09917,-1.62258 -0.1308,-3.2494 -0.13281,-4.875c-0.00129,-0.98484 -0.00258,-1.96969 -0.00391,-2.98437c0.00387,-1.03641 0.00774,-2.07282 0.01172,-3.14063c-0.00387,-1.03641 -0.00773,-2.07281 -0.01172,-3.14062c0.00129,-0.98485 0.00258,-1.96969 0.00391,-2.98438c0.00113,-0.91008 0.00225,-1.82016 0.00342,-2.75781c0.12939,-2.11719 0.12939,-2.11719 1.12939,-3.11719c3.47105,0.40836 6.79937,0.94886 10.1875,1.8125c2.8256,0.45693 2.8256,0.45693 4.95728,-1.09937c2.97309,-4.34793 2.40565,-8.79092 2.35131,-13.93579c0.00146,-1.09702 0.00291,-2.19405 0.00441,-3.32432c-0.00166,-2.31746 -0.01322,-4.63492 -0.03395,-6.95229c-0.02897,-3.55345 -0.0206,-7.10541 -0.00757,-10.65893c-0.00623,-2.25066 -0.01462,-4.50132 -0.02539,-6.75196c0.00294,-1.06565 0.00588,-2.13131 0.0089,-3.22926c-0.01903,-1.48185 -0.01903,-1.48185 -0.03844,-2.99364c-0.0054,-0.86951 -0.0108,-1.73903 -0.01637,-2.6349c-0.47227,-2.71908 -1.2374,-3.5551 -3.38768,-5.23204c-1.8529,-0.92138 -3.7446,-1.76628 -5.65625,-2.55859c-1.10473,-0.46858 -2.20945,-0.93715 -3.34766,-1.41993c-2.32934,-0.97207 -4.66007,-1.94083 -6.99218,-2.90625c-1.10473,-0.46986 -2.20946,-0.93972 -3.34766,-1.42382c-1.01256,-0.4208 -2.02512,-0.8416 -3.06836,-1.27515c-2.84627,-1.55766 -3.90726,-2.67332 -5.58789,-5.41626c-0.38095,-2.35902 -0.38095,-2.35902 -0.38818,-4.99634c-0.00946,-0.99105 -0.01892,-1.9821 -0.02866,-3.00319c0.00607,-1.06363 0.01215,-2.12726 0.0184,-3.22313c-0.00287,-1.09702 -0.00574,-2.19405 -0.0087,-3.32432c-0.00204,-2.31744 0.00349,-4.63489 0.01603,-6.95229c0.01607,-3.55337 0.00014,-7.1056 -0.01905,-10.65893c0.00199,-2.25066 0.00583,-4.50131 0.01172,-6.75196c-0.00607,-1.06565 -0.01214,-2.13131 -0.0184,-3.22926c0.00946,-0.9879 0.01891,-1.9758 0.02866,-2.99364c0.00238,-0.86951 0.00477,-1.73903 0.00723,-2.6349c0.99975,-5.85768 5.23506,-5.826 10.38095,-5.23204z"/>
  <path id="svg_4" d="m218.43109,276.47022" opacity="NaN" fill="#020202"/>
 </g>

</svg>